<mxfile host="Electron" agent="Mozilla/5.0 (Macintosh; Intel Mac OS X 10_15_7) AppleWebKit/537.36 (KHTML, like Gecko) draw.io/24.7.8 Chrome/128.0.6613.36 Electron/32.0.1 Safari/537.36" version="24.7.8">
  <diagram name="Page-1" id="mPcHckrvOCaB1mdSEjpm">
    <mxGraphModel dx="2637" dy="1790" grid="1" gridSize="10" guides="1" tooltips="1" connect="1" arrows="1" fold="1" page="1" pageScale="1" pageWidth="1169" pageHeight="827" math="0" shadow="0">
      <root>
        <mxCell id="0" />
        <mxCell id="1" parent="0" />
        <mxCell id="dpEGTwjzd-vMuxO01E7g-50" value="request management" style="rounded=0;whiteSpace=wrap;html=1;fillColor=none;dashed=1;align=right;verticalAlign=top;" vertex="1" parent="1">
          <mxGeometry x="40" y="140" width="300" height="140" as="geometry" />
        </mxCell>
        <mxCell id="2" value="AWS Cloud" style="points=[[0,0],[0.25,0],[0.5,0],[0.75,0],[1,0],[1,0.25],[1,0.5],[1,0.75],[1,1],[0.75,1],[0.5,1],[0.25,1],[0,1],[0,0.75],[0,0.5],[0,0.25]];outlineConnect=0;html=1;whiteSpace=wrap;fontSize=12;fontStyle=0;container=0;pointerEvents=0;collapsible=0;recursiveResize=0;shape=mxgraph.aws4.group;grIcon=mxgraph.aws4.group_aws_cloud_alt;fillColor=none;verticalAlign=top;align=left;spacingLeft=30;dashed=0;" vertex="1" parent="1">
          <mxGeometry x="20" y="-510" width="1010" height="1150" as="geometry" />
        </mxCell>
        <mxCell id="KWTSNlTJ6oeWwnGfoubK-9" value="Users" style="sketch=0;outlineConnect=0;fontColor=#232F3E;gradientColor=none;strokeColor=#232F3E;fillColor=#ffffff;dashed=0;verticalLabelPosition=bottom;verticalAlign=top;align=center;html=1;fontSize=12;fontStyle=0;aspect=fixed;shape=mxgraph.aws4.resourceIcon;resIcon=mxgraph.aws4.users;" vertex="1" parent="1">
          <mxGeometry x="-100" y="171" width="60" height="60" as="geometry" />
        </mxCell>
        <mxCell id="dpEGTwjzd-vMuxO01E7g-6" value="AWS Step Functions Workflow sentiment analysis and classification" style="rounded=0;whiteSpace=wrap;html=1;align=center;labelPosition=center;verticalLabelPosition=middle;verticalAlign=top;fillColor=none;strokeColor=#ee417d;" vertex="1" parent="1">
          <mxGeometry x="350" y="40" width="660" height="360" as="geometry" />
        </mxCell>
        <mxCell id="KWTSNlTJ6oeWwnGfoubK-10" value="Amazon API Gateway" style="sketch=0;points=[[0,0,0],[0.25,0,0],[0.5,0,0],[0.75,0,0],[1,0,0],[0,1,0],[0.25,1,0],[0.5,1,0],[0.75,1,0],[1,1,0],[0,0.25,0],[0,0.5,0],[0,0.75,0],[1,0.25,0],[1,0.5,0],[1,0.75,0]];outlineConnect=0;fontColor=#232F3E;gradientColor=#FF4F8B;gradientDirection=north;fillColor=#BC1356;strokeColor=#ffffff;dashed=0;verticalLabelPosition=bottom;verticalAlign=top;align=center;html=1;fontSize=12;fontStyle=0;aspect=fixed;shape=mxgraph.aws4.resourceIcon;resIcon=mxgraph.aws4.api_gateway;" vertex="1" parent="1">
          <mxGeometry x="90" y="162" width="78" height="78" as="geometry" />
        </mxCell>
        <mxCell id="KWTSNlTJ6oeWwnGfoubK-11" value="AWS Lambda" style="sketch=0;points=[[0,0,0],[0.25,0,0],[0.5,0,0],[0.75,0,0],[1,0,0],[0,1,0],[0.25,1,0],[0.5,1,0],[0.75,1,0],[1,1,0],[0,0.25,0],[0,0.5,0],[0,0.75,0],[1,0.25,0],[1,0.5,0],[1,0.75,0]];outlineConnect=0;fontColor=#232F3E;gradientColor=#F78E04;gradientDirection=north;fillColor=#D05C17;strokeColor=#ffffff;dashed=0;verticalLabelPosition=bottom;verticalAlign=top;align=center;html=1;fontSize=12;fontStyle=0;aspect=fixed;shape=mxgraph.aws4.resourceIcon;resIcon=mxgraph.aws4.lambda;" vertex="1" parent="1">
          <mxGeometry x="230" y="162" width="78" height="78" as="geometry" />
        </mxCell>
        <mxCell id="KWTSNlTJ6oeWwnGfoubK-12" value="" style="sketch=0;points=[[0,0,0],[0.25,0,0],[0.5,0,0],[0.75,0,0],[1,0,0],[0,1,0],[0.25,1,0],[0.5,1,0],[0.75,1,0],[1,1,0],[0,0.25,0],[0,0.5,0],[0,0.75,0],[1,0.25,0],[1,0.5,0],[1,0.75,0]];outlineConnect=0;fontColor=#232F3E;gradientColor=#FF4F8B;gradientDirection=north;fillColor=#BC1356;strokeColor=#ffffff;dashed=0;verticalLabelPosition=bottom;verticalAlign=top;align=center;html=1;fontSize=12;fontStyle=0;aspect=fixed;shape=mxgraph.aws4.resourceIcon;resIcon=mxgraph.aws4.step_functions;" vertex="1" parent="1">
          <mxGeometry x="350" y="40" width="78" height="78" as="geometry" />
        </mxCell>
        <mxCell id="dpEGTwjzd-vMuxO01E7g-10" style="edgeStyle=orthogonalEdgeStyle;rounded=0;orthogonalLoop=1;jettySize=auto;html=1;" edge="1" parent="1" source="KWTSNlTJ6oeWwnGfoubK-13" target="dpEGTwjzd-vMuxO01E7g-2">
          <mxGeometry relative="1" as="geometry" />
        </mxCell>
        <mxCell id="KWTSNlTJ6oeWwnGfoubK-13" value="AWS Lambda" style="sketch=0;points=[[0,0,0],[0.25,0,0],[0.5,0,0],[0.75,0,0],[1,0,0],[0,1,0],[0.25,1,0],[0.5,1,0],[0.75,1,0],[1,1,0],[0,0.25,0],[0,0.5,0],[0,0.75,0],[1,0.25,0],[1,0.5,0],[1,0.75,0]];outlineConnect=0;fontColor=#232F3E;gradientColor=#F78E04;gradientDirection=north;fillColor=#D05C17;strokeColor=#ffffff;dashed=0;verticalLabelPosition=bottom;verticalAlign=top;align=center;html=1;fontSize=12;fontStyle=0;aspect=fixed;shape=mxgraph.aws4.resourceIcon;resIcon=mxgraph.aws4.lambda;" vertex="1" parent="1">
          <mxGeometry x="460" y="162" width="78" height="78" as="geometry" />
        </mxCell>
        <mxCell id="dpEGTwjzd-vMuxO01E7g-2" value="Amazon Bedrock&amp;nbsp;&lt;div&gt;Batch Inference&lt;/div&gt;" style="sketch=0;points=[[0,0,0],[0.25,0,0],[0.5,0,0],[0.75,0,0],[1,0,0],[0,1,0],[0.25,1,0],[0.5,1,0],[0.75,1,0],[1,1,0],[0,0.25,0],[0,0.5,0],[0,0.75,0],[1,0.25,0],[1,0.5,0],[1,0.75,0]];outlineConnect=0;fontColor=#232F3E;fillColor=#01A88D;strokeColor=#ffffff;dashed=0;verticalLabelPosition=bottom;verticalAlign=top;align=center;html=1;fontSize=12;fontStyle=0;aspect=fixed;shape=mxgraph.aws4.resourceIcon;resIcon=mxgraph.aws4.bedrock;" vertex="1" parent="1">
          <mxGeometry x="580" y="162" width="78" height="78" as="geometry" />
        </mxCell>
        <mxCell id="dpEGTwjzd-vMuxO01E7g-13" style="edgeStyle=orthogonalEdgeStyle;rounded=0;orthogonalLoop=1;jettySize=auto;html=1;" edge="1" parent="1" source="dpEGTwjzd-vMuxO01E7g-8" target="dpEGTwjzd-vMuxO01E7g-9">
          <mxGeometry relative="1" as="geometry" />
        </mxCell>
        <mxCell id="dpEGTwjzd-vMuxO01E7g-8" value="AWS Lambda" style="sketch=0;points=[[0,0,0],[0.25,0,0],[0.5,0,0],[0.75,0,0],[1,0,0],[0,1,0],[0.25,1,0],[0.5,1,0],[0.75,1,0],[1,1,0],[0,0.25,0],[0,0.5,0],[0,0.75,0],[1,0.25,0],[1,0.5,0],[1,0.75,0]];outlineConnect=0;fontColor=#232F3E;gradientColor=#F78E04;gradientDirection=north;fillColor=#D05C17;strokeColor=#ffffff;dashed=0;verticalLabelPosition=bottom;verticalAlign=top;align=center;html=1;fontSize=12;fontStyle=0;aspect=fixed;shape=mxgraph.aws4.resourceIcon;resIcon=mxgraph.aws4.lambda;" vertex="1" parent="1">
          <mxGeometry x="710" y="162" width="78" height="78" as="geometry" />
        </mxCell>
        <mxCell id="dpEGTwjzd-vMuxO01E7g-9" value="AWS Lambda" style="sketch=0;points=[[0,0,0],[0.25,0,0],[0.5,0,0],[0.75,0,0],[1,0,0],[0,1,0],[0.25,1,0],[0.5,1,0],[0.75,1,0],[1,1,0],[0,0.25,0],[0,0.5,0],[0,0.75,0],[1,0.25,0],[1,0.5,0],[1,0.75,0]];outlineConnect=0;fontColor=#232F3E;gradientColor=#F78E04;gradientDirection=north;fillColor=#D05C17;strokeColor=#ffffff;dashed=0;verticalLabelPosition=bottom;verticalAlign=top;align=center;html=1;fontSize=12;fontStyle=0;aspect=fixed;shape=mxgraph.aws4.resourceIcon;resIcon=mxgraph.aws4.lambda;" vertex="1" parent="1">
          <mxGeometry x="840" y="162" width="78" height="78" as="geometry" />
        </mxCell>
        <mxCell id="dpEGTwjzd-vMuxO01E7g-11" style="edgeStyle=orthogonalEdgeStyle;rounded=0;orthogonalLoop=1;jettySize=auto;html=1;entryX=0;entryY=0.5;entryDx=0;entryDy=0;entryPerimeter=0;" edge="1" parent="1" source="dpEGTwjzd-vMuxO01E7g-2" target="dpEGTwjzd-vMuxO01E7g-8">
          <mxGeometry relative="1" as="geometry" />
        </mxCell>
        <mxCell id="dpEGTwjzd-vMuxO01E7g-12" style="edgeStyle=orthogonalEdgeStyle;rounded=0;orthogonalLoop=1;jettySize=auto;html=1;entryX=0.5;entryY=1;entryDx=0;entryDy=0;entryPerimeter=0;exitX=0.5;exitY=1;exitDx=0;exitDy=0;exitPerimeter=0;" edge="1" parent="1" source="dpEGTwjzd-vMuxO01E7g-8" target="dpEGTwjzd-vMuxO01E7g-2">
          <mxGeometry relative="1" as="geometry">
            <Array as="points">
              <mxPoint x="669" y="320" />
              <mxPoint x="539" y="320" />
            </Array>
          </mxGeometry>
        </mxCell>
        <mxCell id="dpEGTwjzd-vMuxO01E7g-15" style="edgeStyle=orthogonalEdgeStyle;rounded=0;orthogonalLoop=1;jettySize=auto;html=1;entryX=0;entryY=0.5;entryDx=0;entryDy=0;entryPerimeter=0;" edge="1" parent="1" source="KWTSNlTJ6oeWwnGfoubK-11" target="KWTSNlTJ6oeWwnGfoubK-13">
          <mxGeometry relative="1" as="geometry" />
        </mxCell>
        <mxCell id="dpEGTwjzd-vMuxO01E7g-16" style="edgeStyle=orthogonalEdgeStyle;rounded=0;orthogonalLoop=1;jettySize=auto;html=1;entryX=0;entryY=0.5;entryDx=0;entryDy=0;entryPerimeter=0;" edge="1" parent="1" source="KWTSNlTJ6oeWwnGfoubK-10" target="KWTSNlTJ6oeWwnGfoubK-11">
          <mxGeometry relative="1" as="geometry" />
        </mxCell>
        <mxCell id="dpEGTwjzd-vMuxO01E7g-17" value="AmazonS3&lt;div&gt;uploaded CSV, input JSONL, output JSONL&lt;/div&gt;" style="sketch=0;points=[[0,0,0],[0.25,0,0],[0.5,0,0],[0.75,0,0],[1,0,0],[0,1,0],[0.25,1,0],[0.5,1,0],[0.75,1,0],[1,1,0],[0,0.25,0],[0,0.5,0],[0,0.75,0],[1,0.25,0],[1,0.5,0],[1,0.75,0]];outlineConnect=0;fontColor=#232F3E;fillColor=#7AA116;strokeColor=#ffffff;dashed=0;verticalLabelPosition=bottom;verticalAlign=top;align=center;html=1;fontSize=12;fontStyle=0;aspect=fixed;shape=mxgraph.aws4.resourceIcon;resIcon=mxgraph.aws4.s3;" vertex="1" parent="1">
          <mxGeometry x="460" y="-120" width="78" height="78" as="geometry" />
        </mxCell>
        <mxCell id="dpEGTwjzd-vMuxO01E7g-18" value="" style="sketch=0;points=[[0,0,0],[0.25,0,0],[0.5,0,0],[0.75,0,0],[1,0,0],[0,1,0],[0.25,1,0],[0.5,1,0],[0.75,1,0],[1,1,0],[0,0.25,0],[0,0.5,0],[0,0.75,0],[1,0.25,0],[1,0.5,0],[1,0.75,0]];outlineConnect=0;fontColor=#232F3E;fillColor=#C925D1;strokeColor=#ffffff;dashed=0;verticalLabelPosition=bottom;verticalAlign=top;align=center;html=1;fontSize=12;fontStyle=0;aspect=fixed;shape=mxgraph.aws4.resourceIcon;resIcon=mxgraph.aws4.dynamodb;" vertex="1" parent="1">
          <mxGeometry x="840" y="-120" width="78" height="78" as="geometry" />
        </mxCell>
        <mxCell id="dpEGTwjzd-vMuxO01E7g-19" style="edgeStyle=orthogonalEdgeStyle;rounded=0;orthogonalLoop=1;jettySize=auto;html=1;entryX=0;entryY=0.5;entryDx=0;entryDy=0;entryPerimeter=0;exitX=0.5;exitY=0;exitDx=0;exitDy=0;exitPerimeter=0;" edge="1" parent="1" source="KWTSNlTJ6oeWwnGfoubK-11" target="dpEGTwjzd-vMuxO01E7g-17">
          <mxGeometry relative="1" as="geometry" />
        </mxCell>
        <mxCell id="dpEGTwjzd-vMuxO01E7g-20" style="edgeStyle=orthogonalEdgeStyle;rounded=0;orthogonalLoop=1;jettySize=auto;html=1;entryX=0.5;entryY=1;entryDx=0;entryDy=0;entryPerimeter=0;" edge="1" parent="1" source="KWTSNlTJ6oeWwnGfoubK-13" target="dpEGTwjzd-vMuxO01E7g-17">
          <mxGeometry relative="1" as="geometry" />
        </mxCell>
        <mxCell id="dpEGTwjzd-vMuxO01E7g-21" style="edgeStyle=orthogonalEdgeStyle;rounded=0;orthogonalLoop=1;jettySize=auto;html=1;entryX=1;entryY=0.5;entryDx=0;entryDy=0;entryPerimeter=0;exitX=0.5;exitY=0;exitDx=0;exitDy=0;exitPerimeter=0;" edge="1" parent="1" source="dpEGTwjzd-vMuxO01E7g-2" target="dpEGTwjzd-vMuxO01E7g-17">
          <mxGeometry relative="1" as="geometry" />
        </mxCell>
        <mxCell id="dpEGTwjzd-vMuxO01E7g-22" style="edgeStyle=orthogonalEdgeStyle;rounded=0;orthogonalLoop=1;jettySize=auto;html=1;entryX=0.5;entryY=1;entryDx=0;entryDy=0;entryPerimeter=0;" edge="1" parent="1" source="dpEGTwjzd-vMuxO01E7g-9" target="dpEGTwjzd-vMuxO01E7g-18">
          <mxGeometry relative="1" as="geometry" />
        </mxCell>
        <mxCell id="dpEGTwjzd-vMuxO01E7g-23" value="" style="sketch=0;points=[[0,0,0],[0.25,0,0],[0.5,0,0],[0.75,0,0],[1,0,0],[0,1,0],[0.25,1,0],[0.5,1,0],[0.75,1,0],[1,1,0],[0,0.25,0],[0,0.5,0],[0,0.75,0],[1,0.25,0],[1,0.5,0],[1,0.75,0]];outlineConnect=0;fontColor=#232F3E;fillColor=#8C4FFF;strokeColor=#ffffff;dashed=0;verticalLabelPosition=bottom;verticalAlign=top;align=center;html=1;fontSize=12;fontStyle=0;aspect=fixed;shape=mxgraph.aws4.resourceIcon;resIcon=mxgraph.aws4.cloudfront;" vertex="1" parent="1">
          <mxGeometry x="90" y="500" width="78" height="78" as="geometry" />
        </mxCell>
        <mxCell id="dpEGTwjzd-vMuxO01E7g-24" value="" style="sketch=0;points=[[0,0,0],[0.25,0,0],[0.5,0,0],[0.75,0,0],[1,0,0],[0,1,0],[0.25,1,0],[0.5,1,0],[0.75,1,0],[1,1,0],[0,0.25,0],[0,0.5,0],[0,0.75,0],[1,0.25,0],[1,0.5,0],[1,0.75,0]];outlineConnect=0;fontColor=#232F3E;fillColor=#7AA116;strokeColor=#ffffff;dashed=0;verticalLabelPosition=bottom;verticalAlign=top;align=center;html=1;fontSize=12;fontStyle=0;aspect=fixed;shape=mxgraph.aws4.resourceIcon;resIcon=mxgraph.aws4.s3;" vertex="1" parent="1">
          <mxGeometry x="230" y="500" width="78" height="78" as="geometry" />
        </mxCell>
        <mxCell id="dpEGTwjzd-vMuxO01E7g-25" value="" style="sketch=0;points=[[0,0,0],[0.25,0,0],[0.5,0,0],[0.75,0,0],[1,0,0],[0,1,0],[0.25,1,0],[0.5,1,0],[0.75,1,0],[1,1,0],[0,0.25,0],[0,0.5,0],[0,0.75,0],[1,0.25,0],[1,0.5,0],[1,0.75,0]];outlineConnect=0;fontColor=#232F3E;fillColor=#DD344C;strokeColor=#ffffff;dashed=0;verticalLabelPosition=bottom;verticalAlign=top;align=center;html=1;fontSize=12;fontStyle=0;aspect=fixed;shape=mxgraph.aws4.resourceIcon;resIcon=mxgraph.aws4.cognito;" vertex="1" parent="1">
          <mxGeometry x="91" y="400" width="78" height="78" as="geometry" />
        </mxCell>
        <mxCell id="dpEGTwjzd-vMuxO01E7g-26" style="edgeStyle=orthogonalEdgeStyle;rounded=0;orthogonalLoop=1;jettySize=auto;html=1;entryX=0;entryY=0.5;entryDx=0;entryDy=0;entryPerimeter=0;" edge="1" parent="1" source="KWTSNlTJ6oeWwnGfoubK-9" target="KWTSNlTJ6oeWwnGfoubK-10">
          <mxGeometry relative="1" as="geometry" />
        </mxCell>
        <mxCell id="dpEGTwjzd-vMuxO01E7g-27" style="edgeStyle=orthogonalEdgeStyle;rounded=0;orthogonalLoop=1;jettySize=auto;html=1;entryX=0;entryY=0.5;entryDx=0;entryDy=0;entryPerimeter=0;" edge="1" parent="1" source="KWTSNlTJ6oeWwnGfoubK-9" target="dpEGTwjzd-vMuxO01E7g-23">
          <mxGeometry relative="1" as="geometry" />
        </mxCell>
        <mxCell id="dpEGTwjzd-vMuxO01E7g-28" style="edgeStyle=orthogonalEdgeStyle;rounded=0;orthogonalLoop=1;jettySize=auto;html=1;entryX=0;entryY=0.5;entryDx=0;entryDy=0;entryPerimeter=0;" edge="1" parent="1" source="KWTSNlTJ6oeWwnGfoubK-9" target="dpEGTwjzd-vMuxO01E7g-25">
          <mxGeometry relative="1" as="geometry" />
        </mxCell>
        <mxCell id="dpEGTwjzd-vMuxO01E7g-29" style="edgeStyle=orthogonalEdgeStyle;rounded=0;orthogonalLoop=1;jettySize=auto;html=1;entryX=0;entryY=0.5;entryDx=0;entryDy=0;entryPerimeter=0;" edge="1" parent="1" source="dpEGTwjzd-vMuxO01E7g-23" target="dpEGTwjzd-vMuxO01E7g-24">
          <mxGeometry relative="1" as="geometry" />
        </mxCell>
        <mxCell id="dpEGTwjzd-vMuxO01E7g-30" value="User Experience" style="rounded=0;whiteSpace=wrap;html=1;fillColor=none;dashed=1;align=right;verticalAlign=top;" vertex="1" parent="1">
          <mxGeometry x="40" y="360" width="300" height="250" as="geometry" />
        </mxCell>
        <mxCell id="dpEGTwjzd-vMuxO01E7g-31" value="1" style="ellipse;whiteSpace=wrap;html=1;aspect=fixed;fillColor=#000000;fontColor=#FFFFFF;fontStyle=1;fontSize=16;" vertex="1" parent="1">
          <mxGeometry x="280" y="382" width="32" height="32" as="geometry" />
        </mxCell>
        <mxCell id="dpEGTwjzd-vMuxO01E7g-32" value="2" style="ellipse;whiteSpace=wrap;html=1;aspect=fixed;fillColor=#000000;fontColor=#FFFFFF;fontStyle=1;fontSize=16;" vertex="1" parent="1">
          <mxGeometry x="210" y="-60" width="32" height="32" as="geometry" />
        </mxCell>
        <mxCell id="dpEGTwjzd-vMuxO01E7g-33" value="3" style="ellipse;whiteSpace=wrap;html=1;aspect=fixed;fillColor=#000000;fontColor=#FFFFFF;fontStyle=1;fontSize=16;" vertex="1" parent="1">
          <mxGeometry x="360" y="162" width="32" height="32" as="geometry" />
        </mxCell>
        <mxCell id="dpEGTwjzd-vMuxO01E7g-34" value="4" style="ellipse;whiteSpace=wrap;html=1;aspect=fixed;fillColor=#000000;fontColor=#FFFFFF;fontStyle=1;fontSize=16;" vertex="1" parent="1">
          <mxGeometry x="509" y="80" width="32" height="32" as="geometry" />
        </mxCell>
        <mxCell id="dpEGTwjzd-vMuxO01E7g-35" value="5" style="ellipse;whiteSpace=wrap;html=1;aspect=fixed;fillColor=#000000;fontColor=#FFFFFF;fontStyle=1;fontSize=16;" vertex="1" parent="1">
          <mxGeometry x="630" y="80" width="32" height="32" as="geometry" />
        </mxCell>
        <mxCell id="dpEGTwjzd-vMuxO01E7g-36" value="6" style="ellipse;whiteSpace=wrap;html=1;aspect=fixed;fillColor=#000000;fontColor=#FFFFFF;fontStyle=1;fontSize=16;" vertex="1" parent="1">
          <mxGeometry x="733" y="80" width="32" height="32" as="geometry" />
        </mxCell>
        <mxCell id="dpEGTwjzd-vMuxO01E7g-37" value="7" style="ellipse;whiteSpace=wrap;html=1;aspect=fixed;fillColor=#000000;fontColor=#FFFFFF;fontStyle=1;fontSize=16;" vertex="1" parent="1">
          <mxGeometry x="890" y="80" width="32" height="32" as="geometry" />
        </mxCell>
        <mxCell id="dpEGTwjzd-vMuxO01E7g-42" style="edgeStyle=orthogonalEdgeStyle;rounded=0;orthogonalLoop=1;jettySize=auto;html=1;exitX=0.5;exitY=0;exitDx=0;exitDy=0;exitPerimeter=0;" edge="1" parent="1" source="dpEGTwjzd-vMuxO01E7g-39" target="dpEGTwjzd-vMuxO01E7g-18">
          <mxGeometry relative="1" as="geometry" />
        </mxCell>
        <mxCell id="dpEGTwjzd-vMuxO01E7g-39" value="AWS Lambda" style="sketch=0;points=[[0,0,0],[0.25,0,0],[0.5,0,0],[0.75,0,0],[1,0,0],[0,1,0],[0.25,1,0],[0.5,1,0],[0.75,1,0],[1,1,0],[0,0.25,0],[0,0.5,0],[0,0.75,0],[1,0.25,0],[1,0.5,0],[1,0.75,0]];outlineConnect=0;fontColor=#232F3E;gradientColor=#F78E04;gradientDirection=north;fillColor=#D05C17;strokeColor=#ffffff;dashed=0;verticalLabelPosition=bottom;verticalAlign=top;align=center;html=1;fontSize=12;fontStyle=0;aspect=fixed;shape=mxgraph.aws4.resourceIcon;resIcon=mxgraph.aws4.lambda;" vertex="1" parent="1">
          <mxGeometry x="234" y="-280" width="78" height="78" as="geometry" />
        </mxCell>
        <mxCell id="dpEGTwjzd-vMuxO01E7g-40" value="Amazon Bedrock&lt;div&gt;Converse&lt;/div&gt;" style="sketch=0;points=[[0,0,0],[0.25,0,0],[0.5,0,0],[0.75,0,0],[1,0,0],[0,1,0],[0.25,1,0],[0.5,1,0],[0.75,1,0],[1,1,0],[0,0.25,0],[0,0.5,0],[0,0.75,0],[1,0.25,0],[1,0.5,0],[1,0.75,0]];outlineConnect=0;fontColor=#232F3E;fillColor=#01A88D;strokeColor=#ffffff;dashed=0;verticalLabelPosition=bottom;verticalAlign=top;align=center;html=1;fontSize=12;fontStyle=0;aspect=fixed;shape=mxgraph.aws4.resourceIcon;resIcon=mxgraph.aws4.bedrock;" vertex="1" parent="1">
          <mxGeometry x="580" y="-280" width="78" height="78" as="geometry" />
        </mxCell>
        <mxCell id="dpEGTwjzd-vMuxO01E7g-41" style="edgeStyle=orthogonalEdgeStyle;rounded=0;orthogonalLoop=1;jettySize=auto;html=1;entryX=0;entryY=0.5;entryDx=0;entryDy=0;entryPerimeter=0;" edge="1" parent="1" source="dpEGTwjzd-vMuxO01E7g-39" target="dpEGTwjzd-vMuxO01E7g-40">
          <mxGeometry relative="1" as="geometry" />
        </mxCell>
        <mxCell id="dpEGTwjzd-vMuxO01E7g-43" style="edgeStyle=orthogonalEdgeStyle;rounded=0;orthogonalLoop=1;jettySize=auto;html=1;entryX=0;entryY=0.5;entryDx=0;entryDy=0;entryPerimeter=0;exitX=0.5;exitY=0;exitDx=0;exitDy=0;exitPerimeter=0;" edge="1" parent="1" source="KWTSNlTJ6oeWwnGfoubK-10" target="dpEGTwjzd-vMuxO01E7g-39">
          <mxGeometry relative="1" as="geometry" />
        </mxCell>
        <mxCell id="dpEGTwjzd-vMuxO01E7g-44" value="Amazon Cloudwatch" style="sketch=0;points=[[0,0,0],[0.25,0,0],[0.5,0,0],[0.75,0,0],[1,0,0],[0,1,0],[0.25,1,0],[0.5,1,0],[0.75,1,0],[1,1,0],[0,0.25,0],[0,0.5,0],[0,0.75,0],[1,0.25,0],[1,0.5,0],[1,0.75,0]];points=[[0,0,0],[0.25,0,0],[0.5,0,0],[0.75,0,0],[1,0,0],[0,1,0],[0.25,1,0],[0.5,1,0],[0.75,1,0],[1,1,0],[0,0.25,0],[0,0.5,0],[0,0.75,0],[1,0.25,0],[1,0.5,0],[1,0.75,0]];outlineConnect=0;fontColor=#232F3E;fillColor=#E7157B;strokeColor=#ffffff;dashed=0;verticalLabelPosition=bottom;verticalAlign=top;align=center;html=1;fontSize=12;fontStyle=0;aspect=fixed;shape=mxgraph.aws4.resourceIcon;resIcon=mxgraph.aws4.cloudwatch_2;" vertex="1" parent="1">
          <mxGeometry x="710" y="500" width="78" height="78" as="geometry" />
        </mxCell>
        <mxCell id="dpEGTwjzd-vMuxO01E7g-45" style="edgeStyle=orthogonalEdgeStyle;rounded=0;orthogonalLoop=1;jettySize=auto;html=1;entryX=0;entryY=0.5;entryDx=0;entryDy=0;entryPerimeter=0;exitX=0.5;exitY=0;exitDx=0;exitDy=0;exitPerimeter=0;" edge="1" parent="1" source="dpEGTwjzd-vMuxO01E7g-8" target="dpEGTwjzd-vMuxO01E7g-18">
          <mxGeometry relative="1" as="geometry" />
        </mxCell>
        <mxCell id="dpEGTwjzd-vMuxO01E7g-46" value="8" style="ellipse;whiteSpace=wrap;html=1;aspect=fixed;fillColor=#000000;fontColor=#FFFFFF;fontStyle=1;fontSize=16;" vertex="1" parent="1">
          <mxGeometry x="373" y="-230" width="32" height="32" as="geometry" />
        </mxCell>
        <mxCell id="dpEGTwjzd-vMuxO01E7g-47" style="edgeStyle=orthogonalEdgeStyle;rounded=0;orthogonalLoop=1;jettySize=auto;html=1;entryX=0.25;entryY=0;entryDx=0;entryDy=0;entryPerimeter=0;" edge="1" parent="1" source="dpEGTwjzd-vMuxO01E7g-40" target="dpEGTwjzd-vMuxO01E7g-18">
          <mxGeometry relative="1" as="geometry" />
        </mxCell>
        <mxCell id="dpEGTwjzd-vMuxO01E7g-48" value="9" style="ellipse;whiteSpace=wrap;html=1;aspect=fixed;fillColor=#000000;fontColor=#FFFFFF;fontStyle=1;fontSize=16;" vertex="1" parent="1">
          <mxGeometry x="740" y="-230" width="32" height="32" as="geometry" />
        </mxCell>
        <mxCell id="dpEGTwjzd-vMuxO01E7g-49" value="10" style="ellipse;whiteSpace=wrap;html=1;aspect=fixed;fillColor=#000000;fontColor=#FFFFFF;fontStyle=1;fontSize=16;" vertex="1" parent="1">
          <mxGeometry x="733" y="446" width="32" height="32" as="geometry" />
        </mxCell>
        <mxCell id="dpEGTwjzd-vMuxO01E7g-51" value="Summarization" style="rounded=0;whiteSpace=wrap;html=1;fillColor=none;dashed=1;align=right;verticalAlign=top;" vertex="1" parent="1">
          <mxGeometry x="209" y="-366" width="711" height="216" as="geometry" />
        </mxCell>
        <mxCell id="dpEGTwjzd-vMuxO01E7g-52" value="Monitoring" style="rounded=0;whiteSpace=wrap;html=1;fillColor=none;dashed=1;align=right;verticalAlign=top;" vertex="1" parent="1">
          <mxGeometry x="658" y="430" width="232" height="190" as="geometry" />
        </mxCell>
      </root>
    </mxGraphModel>
  </diagram>
</mxfile>
